<svg width="653" height="132" viewBox="0 0 653 132" fill="none" xmlns="http://www.w3.org/2000/svg"><path d="M7.563 48.593h6.945v-21.39h24.49v21.39h6.944v-46.5h-6.944v18.662h-24.49V2.093H7.563v46.5zm68.638 0h5.766V29.745c0-8.246-5.208-12.524-13.144-12.524-7.378 0-12.276 3.782-13.764 9.672l6.138 1.116c.93-3.658 3.596-5.332 7.564-5.332 3.658 0 6.262 1.674 6.882 5.456l-8.308 1.922c-6.882 1.612-12.09 4.092-12.09 10.23 0 5.58 4.154 8.866 9.858 8.866 4.588 0 8.37-2.108 10.788-5.642l.31 5.084zM61.817 39.85c0-2.666 2.17-3.844 5.704-4.712l8.246-2.046v.744c0 6.572-4.774 9.92-9.548 9.92-2.728 0-4.402-1.426-4.402-3.906zm26.04-16.492h15.003l-15.376 23.56v1.674h25.048v-5.58H96.784l15.748-23.498v-1.736H87.856v5.58zm57.223-6.138c-8.556 0-15.128 6.758-15.128 15.934 0 9.238 6.572 15.996 15.128 15.996 4.154 0 7.688-1.736 10.168-4.588v17.67h6.448V17.779h-6.014l-.31 4.216c-2.48-2.976-6.076-4.774-10.292-4.774zm.868 5.89c5.58 0 9.3 4.03 9.3 10.044s-3.72 10.106-9.3 10.106c-5.518 0-9.3-4.092-9.3-10.106s3.782-10.044 9.3-10.044zm30.996-5.332h-6.386v19.034c0 8.06 5.146 12.338 11.718 12.338 4.278 0 7.254-1.426 9.3-4.154l.248 3.596h5.89V17.779h-6.448v17.608c0 5.766-3.72 7.874-7.316 7.874-4.402 0-7.006-2.418-7.006-7.006V17.779zm44.023 31.372c7.44 0 12.772-3.72 14.446-9.858l-6.138-1.116c-1.116 3.286-3.782 5.332-8.308 5.332-5.146 0-8.804-2.852-9.424-8.556h23.87c.124-.992.248-2.046.248-2.976 0-8.742-6.2-14.756-15.066-14.756-9.114 0-15.686 6.758-15.686 15.934 0 9.3 6.138 15.996 16.058 15.996zm-.372-26.536c4.526 0 7.626 2.728 8.246 7.192h-17.05c1.054-4.774 4.712-7.192 8.804-7.192zm49.779 26.536c7.44 0 12.772-3.72 14.446-9.858l-6.138-1.116c-1.116 3.286-3.782 5.332-8.308 5.332-5.146 0-8.804-2.852-9.424-8.556h23.87c.124-.992.248-2.046.248-2.976 0-8.742-6.2-14.756-15.066-14.756-9.114 0-15.686 6.758-15.686 15.934 0 9.3 6.138 15.996 16.058 15.996zm-.372-26.536c4.526 0 7.626 2.728 8.246 7.192h-17.05c1.054-4.774 4.712-7.192 8.804-7.192zm22.515 25.978h6.386v-46.5h-6.386v46.5zm29.668 0h6.386V29.745c0-4.712 3.162-6.572 6.51-6.572 3.41 0 5.704 2.108 5.704 6.324v19.096h6.448V29.559c0-4.588 3.1-6.386 6.448-6.386 3.41 0 5.766 2.108 5.766 6.324v19.096h6.448v-19.53c0-7.812-4.836-11.842-10.912-11.842-4.34 0-7.378 2.046-9.424 4.96-1.86-3.286-5.208-4.96-9.052-4.96-3.658 0-6.262 1.674-8.122 4.03l-.248-3.472h-5.952v30.814zm71.584 0h5.766V29.745c0-8.246-5.208-12.524-13.144-12.524-7.378 0-12.276 3.782-13.764 9.672l6.138 1.116c.93-3.658 3.596-5.332 7.564-5.332 3.658 0 6.262 1.674 6.882 5.456l-8.308 1.922c-6.882 1.612-12.09 4.092-12.09 10.23 0 5.58 4.154 8.866 9.858 8.866 4.588 0 8.37-2.108 10.788-5.642l.31 5.084zm-14.384-8.742c0-2.666 2.17-3.844 5.704-4.712l8.246-2.046v.744c0 6.572-4.774 9.92-9.548 9.92-2.728 0-4.402-1.426-4.402-3.906zm29.14 8.742h6.386V32.535c0-5.828 3.596-8.99 7.874-8.99 1.054 0 2.108.124 3.162.434l.868-6.262c-1.178-.31-1.984-.434-3.038-.434-4.092 0-7.068 1.86-8.866 4.712l-.31-4.216h-6.076v30.814zm43.205-30.814l-9.486 10.788h-3.72V2.093h-6.386v46.5h6.386V34.705h3.348l10.416 13.888h7.564L447.08 31.605l12.4-13.826h-7.75zm25.593 31.372c7.44 0 12.772-3.72 14.446-9.858l-6.138-1.116c-1.116 3.286-3.782 5.332-8.308 5.332-5.146 0-8.804-2.852-9.424-8.556h23.87c.124-.992.248-2.046.248-2.976 0-8.742-6.2-14.756-15.066-14.756-9.114 0-15.686 6.758-15.686 15.934 0 9.3 6.138 15.996 16.058 15.996zm-.372-26.536c4.526 0 7.626 2.728 8.246 7.192h-17.05c1.054-4.774 4.712-7.192 8.804-7.192zm18.113-.93v1.674h5.58v16.368c0 5.952 3.658 9.424 9.858 9.424 2.542 0 5.022-.62 7.254-1.674l-1.488-5.27c-1.55.62-3.038 1.054-4.464 1.054-3.1 0-4.774-1.426-4.774-4.898V23.359h11.098v-5.58H507.03v-6.386h-1.55l-10.416 10.292zm27.873-13.95c0 2.356 1.736 4.092 4.092 4.092 2.418 0 4.154-1.736 4.154-4.092s-1.736-4.03-4.154-4.03c-2.356 0-4.092 1.674-4.092 4.03zm.93 40.858h6.386V17.779h-6.386v30.814zm16.044 0h6.386V31.357c0-5.952 3.968-8.184 7.874-8.184 4.092 0 7.13 2.604 7.13 7.75v17.67h6.448V30.055c0-8.494-5.518-12.834-12.09-12.834-3.906 0-7.192 1.612-9.548 4.402l-.248-3.844h-5.952v30.814zm34.334-15.624c0 9.052 6.386 15.686 15.004 15.686 4.092 0 7.626-1.674 10.106-4.526v4.526c0 5.27-3.472 8.246-8.99 8.246-4.774 0-7.626-2.17-8.308-5.828l-6.572 1.24c.992 6.014 6.2 10.478 14.818 10.478 9.548 0 15.438-6.014 15.438-14.632v-30.38h-5.952l-.31 4.154c-2.48-2.914-6.014-4.712-10.23-4.712-8.618 0-15.004 6.634-15.004 15.748zm6.696 0c0-5.89 3.72-9.858 9.238-9.858 5.456 0 9.176 3.968 9.176 9.858 0 5.828-3.72 9.796-9.176 9.796-5.518 0-9.238-3.968-9.238-9.796zM16.244 114.15c8.431 0 12.585-4.278 12.585-9.92 0-7.068-6.262-8.122-11.47-8.99-3.72-.62-6.882-1.116-6.882-3.906 0-2.294 2.294-3.844 5.767-3.844 3.162 0 5.207 1.426 6.014 4.464l6.386-1.364c-1.674-5.394-5.828-8.37-12.4-8.37-7.193 0-12.339 3.968-12.339 9.424 0 6.944 5.828 8.184 10.913 9.052 3.906.682 7.377 1.116 7.377 3.968 0 2.79-2.355 4.216-5.89 4.216-3.905 0-6.324-1.798-7.13-5.394l-6.51 1.364c1.612 6.386 6.696 9.3 13.579 9.3zm32.71 0c7.44 0 12.772-3.72 14.446-9.858l-6.138-1.116c-1.116 3.286-3.782 5.332-8.308 5.332-5.146 0-8.804-2.852-9.424-8.556H63.4c.124-.992.248-2.046.248-2.976 0-8.742-6.2-14.756-15.066-14.756-9.114 0-15.686 6.758-15.686 15.934 0 9.3 6.138 15.996 16.058 15.996zm-.372-26.536c4.526 0 7.626 2.728 8.246 7.192h-17.05c1.054-4.774 4.712-7.192 8.804-7.192zm41.363 25.978h5.766V94.745c0-8.246-5.208-12.524-13.144-12.524-7.378 0-12.276 3.782-13.764 9.672l6.138 1.116c.93-3.658 3.596-5.332 7.564-5.332 3.658 0 6.262 1.674 6.882 5.456l-8.308 1.922c-6.882 1.612-12.09 4.092-12.09 10.23 0 5.58 4.154 8.866 9.858 8.866 4.588 0 8.37-2.108 10.788-5.642l.31 5.084zm-14.384-8.742c0-2.666 2.17-3.844 5.704-4.712l8.246-2.046v.744c0 6.572-4.774 9.92-9.548 9.92-2.728 0-4.402-1.426-4.402-3.906zm40.345-6.696c0 9.238 6.696 15.996 15.748 15.996 7.688 0 13.516-4.774 14.57-11.16l-6.386-1.116c-.806 3.844-3.72 6.386-8.184 6.386-5.332 0-9.052-4.03-9.052-10.106 0-6.138 3.782-10.044 9.114-10.044 4.092 0 6.944 2.356 7.874 6.076l6.448-1.054c-1.426-6.572-6.82-10.912-14.322-10.912-9.052 0-15.81 6.696-15.81 15.934zm50.572-15.934c-9.3 0-16.182 6.758-16.182 15.934 0 9.238 6.882 15.996 16.182 15.996 9.362 0 16.182-6.758 16.182-15.996 0-9.176-6.82-15.934-16.182-15.934zm0 5.89c5.642 0 9.486 4.03 9.486 10.044s-3.844 10.106-9.486 10.106c-5.642 0-9.486-4.092-9.486-10.106s3.844-10.044 9.486-10.044zm23.412 25.482h6.386V94.745c0-4.712 3.162-6.572 6.51-6.572 3.41 0 5.704 2.108 5.704 6.324v19.096h6.448V94.559c0-4.588 3.1-6.386 6.448-6.386 3.41 0 5.766 2.108 5.766 6.324v19.096h6.448v-19.53c0-7.812-4.836-11.842-10.912-11.842-4.34 0-7.378 2.046-9.424 4.96-1.86-3.286-5.208-4.96-9.052-4.96-3.658 0-6.262 1.674-8.122 4.03l-.248-3.472h-5.952v30.814zm66.5-31.372c-9.3 0-16.182 6.758-16.182 15.934 0 9.238 6.882 15.996 16.182 15.996 9.362 0 16.182-6.758 16.182-15.996 0-9.176-6.82-15.934-16.182-15.934zm0 5.89c5.642 0 9.486 4.03 9.486 10.044s-3.844 10.106-9.486 10.106c-5.642 0-9.486-4.092-9.486-10.106s3.844-10.044 9.486-10.044zm42.677-5.332h-6.386v19.034c0 8.06 5.146 12.338 11.718 12.338 4.278 0 7.254-1.426 9.3-4.154l.248 3.596h5.89V82.779h-6.448v17.608c0 5.766-3.72 7.874-7.316 7.874-4.402 0-7.006-2.418-7.006-7.006V82.779zm30.384 30.814h6.386V96.357c0-5.952 3.968-8.184 7.874-8.184 4.092 0 7.13 2.604 7.13 7.75v17.67h6.448V95.055c0-8.494-5.518-12.834-12.09-12.834-3.906 0-7.192 1.612-9.548 4.402l-.248-3.844h-5.952v30.814zm49.445-40.858c0 2.356 1.736 4.092 4.092 4.092 2.418 0 4.154-1.736 4.154-4.092s-1.736-4.03-4.154-4.03c-2.356 0-4.092 1.674-4.092 4.03zm.93 10.044v35.154c0 2.728-1.426 4.154-3.968 4.154-.93 0-1.612-.186-2.48-.434l-1.302 5.332c1.55.62 3.1.806 4.464.806 5.952 0 9.672-3.844 9.672-9.858V82.779h-6.386zm21.686 0h-6.386v19.034c0 8.06 5.146 12.338 11.718 12.338 4.278 0 7.254-1.426 9.3-4.154l.248 3.596h5.89V82.779h-6.448v17.608c0 5.766-3.72 7.874-7.316 7.874-4.402 0-7.006-2.418-7.006-7.006V82.779zm44.024 31.372c7.44 0 12.772-3.72 14.446-9.858l-6.138-1.116c-1.116 3.286-3.782 5.332-8.308 5.332-5.146 0-8.804-2.852-9.424-8.556h23.87c.124-.992.248-2.046.248-2.976 0-8.742-6.2-14.756-15.066-14.756-9.114 0-15.686 6.758-15.686 15.934 0 9.3 6.138 15.996 16.058 15.996zm-.372-26.536c4.526 0 7.626 2.728 8.246 7.192h-17.05c1.054-4.774 4.712-7.192 8.804-7.192zm20.097 10.354c0 9.052 6.386 15.686 15.004 15.686 4.092 0 7.626-1.674 10.106-4.526v4.526c0 5.27-3.472 8.246-8.99 8.246-4.774 0-7.626-2.17-8.308-5.828l-6.572 1.24c.992 6.014 6.2 10.478 14.818 10.478 9.548 0 15.438-6.014 15.438-14.632v-30.38h-5.952l-.31 4.154c-2.48-2.914-6.014-4.712-10.23-4.712-8.618 0-15.004 6.634-15.004 15.748zm6.696 0c0-5.89 3.72-9.858 9.238-9.858 5.456 0 9.176 3.968 9.176 9.858 0 5.828-3.72 9.796-9.176 9.796-5.518 0-9.238-3.968-9.238-9.796zm48.236-15.748c-9.3 0-16.182 6.758-16.182 15.934 0 9.238 6.882 15.996 16.182 15.996 9.362 0 16.182-6.758 16.182-15.996 0-9.176-6.82-15.934-16.182-15.934zm0 5.89c5.642 0 9.486 4.03 9.486 10.044s-3.844 10.106-9.486 10.106c-5.642 0-9.486-4.092-9.486-10.106s3.844-10.044 9.486-10.044z" fill="#171A22"/></svg>