<svg width="209" height="29" viewBox="0 0 209 29" fill="none" xmlns="http://www.w3.org/2000/svg"><path d="M144.297 11.583c0-3.448-2.105-5.959-6.139-5.959h-13.032V23.5h4.28v-6.082h5.069l4.964 6.1h4.823v-.39l-4.823-5.817c3.034-.618 4.858-2.864 4.858-5.728zm-6.612 2.227h-8.261V9.337h8.261c1.526 0 2.508.813 2.508 2.228 0 1.45-.947 2.245-2.508 2.245zM209 5.64h-3.999v6.772h-10.787V5.64h-4.332v17.875h4.332v-7.037h10.787v7.037H209V5.64zM113.673 5.64l-4.753 15.046h-.263L103.868 5.64h-7.63v17.875h4.087V8.822h.246l4.771 14.694h6.56l4.788-14.694h.263v14.694h4.209V5.64h-7.489zM67.07 12.96c-1.507-.16-4.331-.425-5.84-.584-1.49-.159-2.35-.6-2.35-1.591 0-.955.912-1.75 4.595-1.75 3.263 0 6.262.707 8.875 1.98V7c-2.613-1.255-5.507-1.874-9.103-1.874-5.051 0-8.541 2.122-8.541 5.729 0 3.04 2.052 4.703 6.156 5.163 1.49.159 4.017.389 5.788.53 1.93.16 2.49.76 2.49 1.645 0 1.22-1.35 1.962-4.77 1.962-3.473 0-6.998-1.15-9.507-2.758v4.12c2.017 1.361 5.49 2.51 9.367 2.51 5.507 0 9.05-2.14 9.05-5.976.035-2.882-1.86-4.65-6.21-5.092zM76.121 5.64v17.875h16.54v-3.642H80.19v-3.642h12.26v-3.625H80.19V9.282h12.47V5.64H76.12zM181.025 12.96c-1.509-.16-4.333-.425-5.841-.584-1.491-.159-2.35-.6-2.35-1.591 0-.955.912-1.75 4.595-1.75 3.262 0 6.262.707 8.875 1.98V7c-2.613-1.255-5.507-1.874-9.103-1.874-5.051 0-8.542 2.122-8.542 5.729 0 3.04 2.053 4.703 6.157 5.163 1.491.159 4.016.389 5.788.53 1.929.16 2.49.76 2.49 1.645 0 1.22-1.35 1.962-4.77 1.962-3.473 0-6.999-1.15-9.507-2.758v4.12c2.017 1.361 5.49 2.51 9.366 2.51 5.508 0 9.051-2.14 9.051-5.976.035-2.882-1.859-4.65-6.209-5.092zM161.468 5.64v9.159c0 3.465-2.087 5.375-5.226 5.375-3.158 0-5.227-1.875-5.227-5.428V5.64h-4.262v8.699c0 6.489 4.016 9.707 9.559 9.707 5.314 0 9.436-3.077 9.436-9.495V5.64h-4.28zM40.025 14.485c0 .867-.438 1.008-1.526 1.008-1.157 0-1.368-.194-1.49-1.079-.229-2.245-1.737-4.155-4.263-4.367-.807-.07-1-.371-1-1.379 0-.937.14-1.38.86-1.38 4.402.019 7.419 3.573 7.419 7.197zm6.402 0C46.427 7.75 41.902.623 31.448.623H10.681c-.42 0-.684.212-.684.601 0 .212.158.407.299.513.754.601 1.876 1.273 3.35 2.016a48.396 48.396 0 003.683 1.662c.474.194.649.406.649.672 0 .37-.263.6-.772.6H.72c-.491 0-.719.319-.719.637 0 .266.088.495.316.725 1.333 1.415 3.473 3.112 6.577 5.075a94.703 94.703 0 008.77 4.862c.456.212.596.46.596.725-.018.3-.245.548-.772.548h-7.56c-.42 0-.666.23-.666.584 0 .194.158.442.369.636 1.719 1.574 4.472 3.289 8.138 4.863 4.893 2.104 9.857 3.36 15.435 3.36 10.576 0 15.224-7.993 15.224-14.217zM32.606 24.44c-5.402 0-9.928-4.438-9.928-9.972 0-5.446 4.508-9.831 9.928-9.831 5.542 0 9.892 4.367 9.892 9.83 0 5.535-4.332 9.973-9.892 9.973z" fill="#171A22"/></svg>