<svg width="562" height="132" viewBox="0 0 562 132" fill="none" xmlns="http://www.w3.org/2000/svg"><path d="M4.725 33.02h4.452V8.324l16.38 24.696h5.04V1.52h-4.494v24.612L9.723 1.52H4.725v31.5zM41.99 12.146h-4.326V25.04c0 5.46 3.486 8.358 7.938 8.358 2.898 0 4.914-.966 6.3-2.814l.168 2.436h3.99V12.146H51.69v11.928c0 3.906-2.52 5.334-4.956 5.334-2.982 0-4.746-1.638-4.746-4.746V12.146zM71.81 33.398c5.04 0 8.652-2.52 9.786-6.678l-4.158-.756c-.756 2.226-2.562 3.612-5.628 3.612-3.486 0-5.964-1.932-6.384-5.796h16.17c.084-.672.168-1.386.168-2.016 0-5.922-4.2-9.996-10.206-9.996-6.174 0-10.626 4.578-10.626 10.794 0 6.3 4.158 10.836 10.878 10.836zm-.252-17.976c3.066 0 5.166 1.848 5.586 4.872h-11.55c.714-3.234 3.192-4.872 5.964-4.872zm22.308 17.976c5.712 0 8.526-2.898 8.526-6.72 0-4.788-4.242-5.502-7.77-6.09-2.52-.42-4.662-.756-4.662-2.646 0-1.554 1.554-2.604 3.906-2.604 2.142 0 3.528.966 4.074 3.024l4.326-.924c-1.134-3.654-3.948-5.67-8.4-5.67-4.872 0-8.358 2.688-8.358 6.384 0 4.704 3.948 5.544 7.392 6.132 2.646.462 4.998.756 4.998 2.688 0 1.89-1.596 2.856-3.99 2.856-2.646 0-4.284-1.218-4.83-3.654l-4.41.924c1.092 4.326 4.536 6.3 9.198 6.3zm9.937-18.606v1.134h3.78v11.088c0 4.032 2.478 6.384 6.678 6.384 1.722 0 3.402-.42 4.914-1.134l-1.008-3.57c-1.05.42-2.058.714-3.024.714-2.1 0-3.234-.966-3.234-3.318V15.926h7.518v-3.78h-7.518V7.82h-1.05l-7.056 6.972zm19.511 18.228h4.326V22.142c0-3.948 2.436-6.09 5.334-6.09.714 0 1.428.084 2.142.294l.588-4.242c-.798-.21-1.344-.294-2.058-.294-2.772 0-4.788 1.26-6.006 3.192l-.21-2.856h-4.116V33.02zm28.764 0h3.906V20.252c0-5.586-3.528-8.484-8.904-8.484-4.998 0-8.316 2.562-9.324 6.552l4.158.756c.63-2.478 2.436-3.612 5.124-3.612 2.478 0 4.242 1.134 4.662 3.696l-5.628 1.302c-4.662 1.092-8.19 2.772-8.19 6.93 0 3.78 2.814 6.006 6.678 6.006 3.108 0 5.67-1.428 7.308-3.822l.21 3.444zm-9.744-5.922c0-1.806 1.47-2.604 3.864-3.192l5.586-1.386v.504c0 4.452-3.234 6.72-6.468 6.72-1.848 0-2.982-.966-2.982-2.646zm26.755 6.3c5.712 0 8.526-2.898 8.526-6.72 0-4.788-4.242-5.502-7.77-6.09-2.52-.42-4.662-.756-4.662-2.646 0-1.554 1.554-2.604 3.906-2.604 2.142 0 3.528.966 4.074 3.024l4.326-.924c-1.134-3.654-3.948-5.67-8.4-5.67-4.872 0-8.358 2.688-8.358 6.384 0 4.704 3.948 5.544 7.392 6.132 2.646.462 4.998.756 4.998 2.688 0 1.89-1.596 2.856-3.99 2.856-2.646 0-4.284-1.218-4.83-3.654l-4.41.924c1.092 4.326 4.536 6.3 9.198 6.3zm22.147-.378h4.326V20.252c0-3.192 2.142-4.452 4.41-4.452 2.31 0 3.864 1.428 3.864 4.284V33.02h4.368V20.126c0-3.108 2.1-4.326 4.368-4.326 2.31 0 3.906 1.428 3.906 4.284V33.02h4.368V19.79c0-5.292-3.276-8.022-7.392-8.022-2.94 0-4.998 1.386-6.384 3.36-1.26-2.226-3.528-3.36-6.132-3.36-2.478 0-4.242 1.134-5.502 2.73l-.168-2.352h-4.032V33.02zM236.37 2.99l-4.032 5.67h4.032l5.67-5.67h-5.67zm3.36 30.03h3.906V20.252c0-5.586-3.528-8.484-8.904-8.484-4.998 0-8.316 2.562-9.324 6.552l4.158.756c.63-2.478 2.436-3.612 5.124-3.612 2.478 0 4.242 1.134 4.662 3.696l-5.628 1.302c-4.662 1.092-8.19 2.772-8.19 6.93 0 3.78 2.814 6.006 6.678 6.006 3.108 0 5.67-1.428 7.308-3.822l.21 3.444zm-9.744-5.922c0-1.806 1.47-2.604 3.864-3.192l5.586-1.386v.504c0 4.452-3.234 6.72-6.468 6.72-1.848 0-2.982-.966-2.982-2.646zm26.754 6.3c5.712 0 8.526-2.898 8.526-6.72 0-4.788-4.242-5.502-7.77-6.09-2.52-.42-4.662-.756-4.662-2.646 0-1.554 1.554-2.604 3.906-2.604 2.142 0 3.528.966 4.074 3.024l4.326-.924c-1.134-3.654-3.948-5.67-8.4-5.67-4.872 0-8.358 2.688-8.358 6.384 0 4.704 3.948 5.544 7.392 6.132 2.646.462 4.998.756 4.998 2.688 0 1.89-1.596 2.856-3.99 2.856-2.646 0-4.284-1.218-4.83-3.654l-4.41.924c1.092 4.326 4.536 6.3 9.198 6.3zm42.013-.378V1.52h-4.368v13.356c-1.68-1.932-4.074-3.108-6.888-3.108-5.838 0-10.248 4.578-10.248 10.794 0 6.258 4.41 10.836 10.248 10.836 2.856 0 5.334-1.218 7.014-3.276l.168 2.898h4.074zm-10.668-17.262c3.78 0 6.3 2.73 6.3 6.804s-2.52 6.846-6.3 6.846c-3.738 0-6.3-2.772-6.3-6.846s2.562-6.804 6.3-6.804zm26.415 17.64c5.04 0 8.652-2.52 9.786-6.678l-4.158-.756c-.756 2.226-2.562 3.612-5.628 3.612-3.486 0-5.964-1.932-6.384-5.796h16.17c.084-.672.168-1.386.168-2.016 0-5.922-4.2-9.996-10.206-9.996-6.174 0-10.626 4.578-10.626 10.794 0 6.3 4.158 10.836 10.878 10.836zm-.252-17.976c3.066 0 5.166 1.848 5.586 4.872h-11.55c.714-3.234 3.192-4.872 5.964-4.872zM23.709 66.688c0-5.964-4.074-10.206-10.206-10.206-1.806 0-3.402.378-4.914 1.176l1.344-7.98h12.432V45.52H6.195L3.55 61.816l3.822 1.092c1.008-1.512 2.982-2.436 5.334-2.436 3.654 0 6.258 2.562 6.258 6.342 0 3.822-2.604 6.3-6.426 6.3-2.94 0-5.67-1.512-6.258-5.166l-4.62 1.218c1.05 5.628 5.628 8.232 10.878 8.232 6.804 0 11.172-4.494 11.172-10.71zm16.193 10.71c6.972 0 11.55-6.048 11.55-16.212 0-10.08-4.578-16.044-11.55-16.044s-11.55 5.964-11.55 16.044c0 10.164 4.578 16.212 11.55 16.212zm0-28.014c4.578 0 6.804 4.704 6.804 11.802 0 7.224-2.184 11.97-6.804 11.97-4.662 0-6.846-4.746-6.846-11.97 0-7.098 2.184-11.802 6.846-11.802zm26.77 27.636H71V65.344c0-3.99 2.688-5.544 5.334-5.544 2.772 0 4.83 1.764 4.83 5.25v11.97h4.368V64.462c0-5.754-3.739-8.694-8.19-8.694-2.73 0-4.872 1.134-6.342 2.814V45.52h-4.326v31.5zm34.137.378c5.04 0 8.652-2.52 9.786-6.678l-4.158-.756c-.756 2.226-2.562 3.612-5.628 3.612-3.486 0-5.964-1.932-6.384-5.796h16.17c.084-.672.168-1.386.168-2.016 0-5.922-4.2-9.996-10.206-9.996-6.174 0-10.626 4.578-10.626 10.794 0 6.3 4.158 10.836 10.878 10.836zm-.252-17.976c3.066 0 5.166 1.848 5.586 4.872h-11.55c.714-3.234 3.192-4.872 5.964-4.872zm15.252 17.598h4.326V66.142c0-3.948 2.436-6.09 5.334-6.09.714 0 1.428.084 2.142.294l.588-4.242c-.798-.21-1.344-.294-2.058-.294-2.772 0-4.788 1.26-6.006 3.192l-.21-2.856h-4.116V77.02zm15.996 0h4.326V66.142c0-3.948 2.436-6.09 5.334-6.09.714 0 1.428.084 2.142.294l.588-4.242c-.798-.21-1.344-.294-2.058-.294-2.772 0-4.788 1.26-6.006 3.192l-.21-2.856h-4.116V77.02zm28.764 0h3.906V64.252c0-5.586-3.528-8.484-8.904-8.484-4.998 0-8.316 2.562-9.324 6.552l4.158.756c.63-2.478 2.436-3.612 5.124-3.612 2.478 0 4.242 1.134 4.662 3.696l-5.628 1.302c-4.662 1.092-8.19 2.772-8.19 6.93 0 3.78 2.814 6.006 6.678 6.006 3.108 0 5.67-1.428 7.308-3.822l.21 3.444zm-9.744-5.922c0-1.806 1.47-2.604 3.864-3.192l5.586-1.386v.504c0 4.452-3.234 6.72-6.468 6.72-1.848 0-2.982-.966-2.982-2.646zm19.74 5.922h4.326V64.252c0-3.192 2.142-4.452 4.41-4.452 2.31 0 3.864 1.428 3.864 4.284V77.02h4.368V64.126c0-3.108 2.1-4.326 4.368-4.326 2.31 0 3.906 1.428 3.906 4.284V77.02h4.368V63.79c0-5.292-3.276-8.022-7.392-8.022-2.94 0-4.998 1.386-6.384 3.36-1.26-2.226-3.528-3.36-6.132-3.36-2.478 0-4.242 1.134-5.502 2.73l-.168-2.352h-4.032V77.02zm35.095-27.678c0 1.596 1.176 2.772 2.772 2.772 1.638 0 2.814-1.176 2.814-2.772 0-1.596-1.176-2.73-2.814-2.73-1.596 0-2.772 1.134-2.772 2.73zm.63 27.678h4.326V56.146h-4.326V77.02zm20.109.378c5.04 0 8.652-2.52 9.786-6.678l-4.158-.756c-.756 2.226-2.562 3.612-5.628 3.612-3.486 0-5.964-1.932-6.384-5.796h16.17c.084-.672.168-1.386.168-2.016 0-5.922-4.2-9.996-10.206-9.996-6.174 0-10.626 4.578-10.626 10.794 0 6.3 4.158 10.836 10.878 10.836zm-.252-17.976c3.066 0 5.166 1.848 5.586 4.872h-11.55c.714-3.234 3.192-4.872 5.964-4.872zm15.252 17.598h4.326V65.344c0-4.032 2.688-5.544 5.334-5.544 2.772 0 4.83 1.764 4.83 5.25v11.97h4.368V64.462c0-5.754-3.738-8.694-8.19-8.694-2.646 0-4.872 1.092-6.468 2.982l-.168-2.604h-4.032V77.02zm21.915-18.228v1.134h3.78v11.088c0 4.032 2.478 6.384 6.678 6.384 1.722 0 3.402-.42 4.914-1.134l-1.008-3.57c-1.05.42-2.058.714-3.024.714-2.1 0-3.234-.966-3.234-3.318V59.926h7.518v-3.78h-7.518V51.82h-1.05l-7.056 6.972zm32.279 18.228h3.906V64.252c0-5.586-3.528-8.484-8.904-8.484-4.998 0-8.316 2.562-9.324 6.552l4.158.756c.63-2.478 2.436-3.612 5.124-3.612 2.478 0 4.242 1.134 4.662 3.696l-5.628 1.302c-4.662 1.092-8.19 2.772-8.19 6.93 0 3.78 2.814 6.006 6.678 6.006 3.108 0 5.67-1.428 7.308-3.822l.21 3.444zm-9.744-5.922c0-1.806 1.47-2.604 3.864-3.192l5.586-1.386v.504c0 4.452-3.234 6.72-6.468 6.72-1.848 0-2.982-.966-2.982-2.646zm26.754 6.3c5.712 0 8.526-2.898 8.526-6.72 0-4.788-4.242-5.502-7.77-6.09-2.52-.42-4.662-.756-4.662-2.646 0-1.554 1.554-2.604 3.906-2.604 2.142 0 3.528.966 4.074 3.024l4.326-.924c-1.134-3.654-3.948-5.67-8.4-5.67-4.872 0-8.358 2.688-8.358 6.384 0 4.704 3.948 5.544 7.392 6.132 2.646.462 4.998.756 4.998 2.688 0 1.89-1.596 2.856-3.99 2.856-2.646 0-4.284-1.218-4.83-3.654l-4.41.924c1.092 4.326 4.536 6.3 9.198 6.3zm42.014-.378v-31.5h-4.368v13.356c-1.68-1.932-4.074-3.108-6.888-3.108-5.838 0-10.248 4.578-10.248 10.794 0 6.258 4.41 10.836 10.248 10.836 2.856 0 5.334-1.218 7.014-3.276l.168 2.898h4.074zm-10.668-17.262c3.78 0 6.3 2.73 6.3 6.804s-2.52 6.846-6.3 6.846c-3.738 0-6.3-2.772-6.3-6.846s2.562-6.804 6.3-6.804zm16.545-10.416c0 1.596 1.176 2.772 2.772 2.772 1.638 0 2.814-1.176 2.814-2.772 0-1.596-1.176-2.73-2.814-2.73-1.596 0-2.772 1.134-2.772 2.73zm.63 27.678h4.326V56.146h-4.326V77.02zm9.231-10.584c0 6.132 4.326 10.626 10.164 10.626 2.772 0 5.166-1.134 6.846-3.066v3.066c0 3.57-2.352 5.586-6.09 5.586-3.234 0-5.166-1.47-5.628-3.948l-4.452.84c.672 4.074 4.2 7.098 10.038 7.098 6.468 0 10.458-4.074 10.458-9.912v-20.58h-4.032l-.21 2.814c-1.68-1.974-4.074-3.192-6.93-3.192-5.838 0-10.164 4.494-10.164 10.668zm4.536 0c0-3.99 2.52-6.678 6.258-6.678 3.696 0 6.216 2.688 6.216 6.678 0 3.948-2.52 6.636-6.216 6.636-3.738 0-6.258-2.688-6.258-6.636zm22.722-17.094c0 1.596 1.176 2.772 2.772 2.772 1.638 0 2.814-1.176 2.814-2.772 0-1.596-1.176-2.73-2.814-2.73-1.596 0-2.772 1.134-2.772 2.73zm.63 27.678h4.326V56.146h-4.326V77.02zm7.887-18.228v1.134h3.78v11.088c0 4.032 2.478 6.384 6.678 6.384 1.722 0 3.402-.42 4.914-1.134l-1.008-3.57c-1.05.42-2.058.714-3.024.714-2.1 0-3.234-.966-3.234-3.318V59.926h7.518v-3.78h-7.518V51.82h-1.05l-7.056 6.972zm32.279 18.228h3.906V64.252c0-5.586-3.528-8.484-8.904-8.484-4.998 0-8.316 2.562-9.324 6.552l4.158.756c.63-2.478 2.436-3.612 5.124-3.612 2.478 0 4.242 1.134 4.662 3.696l-5.628 1.302c-4.662 1.092-8.19 2.772-8.19 6.93 0 3.78 2.814 6.006 6.678 6.006 3.108 0 5.67-1.428 7.308-3.822l.21 3.444zm-9.744-5.922c0-1.806 1.47-2.604 3.864-3.192l5.586-1.386v.504c0 4.452-3.234 6.72-6.468 6.72-1.848 0-2.982-.966-2.982-2.646zm19.74 5.922h4.326v-31.5h-4.326v31.5zm20.109.378c5.04 0 8.652-2.52 9.786-6.678l-4.158-.756c-.756 2.226-2.562 3.612-5.628 3.612-3.486 0-5.964-1.932-6.384-5.796h16.17c.084-.672.168-1.386.168-2.016 0-5.922-4.2-9.996-10.206-9.996-6.174 0-10.626 4.578-10.626 10.794 0 6.3 4.158 10.836 10.878 10.836zm-.252-17.976c3.066 0 5.166 1.848 5.586 4.872h-11.55c.714-3.234 3.192-4.872 5.964-4.872zm22.308 17.976c5.712 0 8.526-2.898 8.526-6.72 0-4.788-4.242-5.502-7.77-6.09-2.52-.42-4.662-.756-4.662-2.646 0-1.554 1.554-2.604 3.906-2.604 2.142 0 3.528.966 4.074 3.024l4.326-.924c-1.134-3.654-3.948-5.67-8.4-5.67-4.872 0-8.358 2.688-8.358 6.384 0 4.704 3.948 5.544 7.392 6.132 2.646.462 4.998.756 4.998 2.688 0 1.89-1.596 2.856-3.99 2.856-2.646 0-4.284-1.218-4.83-3.654l-4.41.924c1.092 4.326 4.536 6.3 9.198 6.3zM.567 102.792v1.134h3.78v11.088c0 4.032 2.478 6.384 6.678 6.384 1.722 0 3.402-.42 4.914-1.134l-1.008-3.57c-1.05.42-2.058.714-3.024.714-2.1 0-3.234-.966-3.234-3.318v-10.164h7.518v-3.78H8.673V95.82h-1.05l-7.056 6.972zm28.465 18.606c5.04 0 8.652-2.52 9.786-6.678l-4.158-.756c-.756 2.226-2.562 3.612-5.628 3.612-3.486 0-5.964-1.932-6.384-5.796h16.17c.084-.672.168-1.386.168-2.016 0-5.922-4.2-9.996-10.206-9.996-6.174 0-10.626 4.578-10.626 10.794 0 6.3 4.158 10.836 10.878 10.836zm-.252-17.976c3.066 0 5.166 1.848 5.586 4.872h-11.55c.714-3.234 3.192-4.872 5.964-4.872zm44.346 17.598v-31.5h-4.368v13.356c-1.68-1.932-4.074-3.108-6.888-3.108-5.838 0-10.248 4.578-10.248 10.794 0 6.258 4.41 10.836 10.248 10.836 2.856 0 5.334-1.218 7.014-3.276l.168 2.898h4.074zm-10.668-17.262c3.78 0 6.3 2.73 6.3 6.804s-2.52 6.846-6.3 6.846c-3.738 0-6.3-2.772-6.3-6.846s2.562-6.804 6.3-6.804zm29.943 17.262h3.906v-12.768c0-5.586-3.528-8.484-8.904-8.484-4.998 0-8.316 2.562-9.324 6.552l4.158.756c.63-2.478 2.436-3.612 5.124-3.612 2.478 0 4.242 1.134 4.662 3.696l-5.628 1.302c-4.662 1.092-8.19 2.772-8.19 6.93 0 3.78 2.814 6.006 6.678 6.006 3.108 0 5.67-1.428 7.308-3.822l.21 3.444zm-9.744-5.922c0-1.806 1.47-2.604 3.864-3.192l5.586-1.386v.504c0 4.452-3.234 6.72-6.468 6.72-1.848 0-2.982-.966-2.982-2.646zm19.74 5.922h4.326v-11.676c0-4.032 2.688-5.544 5.334-5.544 2.772 0 4.83 1.764 4.83 5.25v11.97h4.368v-12.558c0-5.754-3.738-8.694-8.19-8.694-2.646 0-4.872 1.092-6.468 2.982l-.168-2.604h-4.032v20.874zm43.365.378c5.04 0 8.652-2.52 9.786-6.678l-4.158-.756c-.756 2.226-2.562 3.612-5.628 3.612-3.486 0-5.964-1.932-6.384-5.796h16.17c.084-.672.168-1.386.168-2.016 0-5.922-4.2-9.996-10.206-9.996-6.174 0-10.626 4.578-10.626 10.794 0 6.3 4.158 10.836 10.878 10.836zm-.252-17.976c3.066 0 5.166 1.848 5.586 4.872h-11.55c.714-3.234 3.192-4.872 5.964-4.872zm22.308 17.976c5.712 0 8.526-2.898 8.526-6.72 0-4.788-4.242-5.502-7.77-6.09-2.52-.42-4.662-.756-4.662-2.646 0-1.554 1.554-2.604 3.906-2.604 2.142 0 3.528.966 4.074 3.024l4.326-.924c-1.134-3.654-3.948-5.67-8.4-5.67-4.872 0-8.358 2.688-8.358 6.384 0 4.704 3.948 5.544 7.392 6.132 2.646.462 4.998.756 4.998 2.688 0 1.89-1.596 2.856-3.99 2.856-2.646 0-4.284-1.218-4.83-3.654l-4.41.924c1.092 4.326 4.536 6.3 9.198 6.3zm12.919-21.252v30.114h4.326v-12.012c1.68 1.974 4.116 3.15 6.93 3.15 5.796 0 10.206-4.578 10.206-10.836 0-6.216-4.41-10.794-10.206-10.794-2.898 0-5.334 1.26-7.056 3.318l-.168-2.94h-4.032zm10.626 3.612c3.738 0 6.3 2.73 6.3 6.804s-2.562 6.846-6.3 6.846c-3.78 0-6.3-2.772-6.3-6.846s2.52-6.804 6.3-6.804zm28.515 17.262h3.906v-12.768c0-5.586-3.528-8.484-8.904-8.484-4.998 0-8.316 2.562-9.324 6.552l4.158.756c.63-2.478 2.436-3.612 5.124-3.612 2.478 0 4.242 1.134 4.662 3.696l-5.628 1.302c-4.662 1.092-8.19 2.772-8.19 6.93 0 3.78 2.814 6.006 6.678 6.006 3.108 0 5.67-1.428 7.308-3.822l.21 3.444zm-9.744-5.922c0-1.806 1.47-2.604 3.864-3.192l5.586-1.386v.504c0 4.452-3.234 6.72-6.468 6.72-1.848 0-2.982-.966-2.982-2.646zm18.102-4.536c0 6.258 4.536 10.836 10.668 10.836 5.208 0 9.156-3.234 9.87-7.56l-4.326-.756c-.546 2.604-2.52 4.326-5.544 4.326-3.612 0-6.132-2.73-6.132-6.846 0-4.158 2.562-6.804 6.174-6.804 2.772 0 4.704 1.596 5.334 4.116l4.368-.714c-.966-4.452-4.62-7.392-9.702-7.392-6.132 0-10.71 4.536-10.71 10.794zm24.305-17.22c0 1.596 1.176 2.772 2.772 2.772 1.638 0 2.814-1.176 2.814-2.772 0-1.596-1.176-2.73-2.814-2.73-1.596 0-2.772 1.134-2.772 2.73zm.63 27.678h4.326v-20.874h-4.326v20.874zm20.193-21.252c-6.3 0-10.962 4.578-10.962 10.794 0 6.258 4.662 10.836 10.962 10.836 6.342 0 10.962-4.578 10.962-10.836 0-6.216-4.62-10.794-10.962-10.794zm0 3.99c3.822 0 6.426 2.73 6.426 6.804s-2.604 6.846-6.426 6.846-6.426-2.772-6.426-6.846 2.604-6.804 6.426-6.804zm25.088-3.612v30.114h4.326v-12.012c1.68 1.974 4.116 3.15 6.93 3.15 5.796 0 10.206-4.578 10.206-10.836 0-6.216-4.41-10.794-10.206-10.794-2.898 0-5.334 1.26-7.056 3.318l-.168-2.94h-4.032zm10.626 3.612c3.738 0 6.3 2.73 6.3 6.804s-2.562 6.846-6.3 6.846c-3.78 0-6.3-2.772-6.3-6.846s2.52-6.804 6.3-6.804zm28.515 17.262h3.906v-12.768c0-5.586-3.528-8.484-8.904-8.484-4.998 0-8.316 2.562-9.324 6.552l4.158.756c.63-2.478 2.436-3.612 5.124-3.612 2.478 0 4.242 1.134 4.662 3.696l-5.628 1.302c-4.662 1.092-8.19 2.772-8.19 6.93 0 3.78 2.814 6.006 6.678 6.006 3.108 0 5.67-1.428 7.308-3.822l.21 3.444zm-9.744-5.922c0-1.806 1.47-2.604 3.864-3.192l5.586-1.386v.504c0 4.452-3.234 6.72-6.468 6.72-1.848 0-2.982-.966-2.982-2.646zm19.74 5.922h4.326v-10.878c0-3.948 2.436-6.09 5.334-6.09.714 0 1.428.084 2.142.294l.588-4.242c-.798-.21-1.344-.294-2.058-.294-2.772 0-4.788 1.26-6.006 3.192l-.21-2.856h-4.116v20.874zm28.764 0h3.906v-12.768c0-5.586-3.528-8.484-8.904-8.484-4.998 0-8.316 2.562-9.324 6.552l4.158.756c.63-2.478 2.436-3.612 5.124-3.612 2.478 0 4.242 1.134 4.662 3.696l-5.628 1.302c-4.662 1.092-8.19 2.772-8.19 6.93 0 3.78 2.814 6.006 6.678 6.006 3.108 0 5.67-1.428 7.308-3.822l.21 3.444zm-9.744-5.922c0-1.806 1.47-2.604 3.864-3.192l5.586-1.386v.504c0 4.452-3.234 6.72-6.468 6.72-1.848 0-2.982-.966-2.982-2.646zm38.208 6.3c5.04 0 8.652-2.52 9.786-6.678l-4.158-.756c-.756 2.226-2.562 3.612-5.628 3.612-3.486 0-5.964-1.932-6.384-5.796h16.17c.084-.672.168-1.386.168-2.016 0-5.922-4.2-9.996-10.206-9.996-6.174 0-10.626 4.578-10.626 10.794 0 6.3 4.158 10.836 10.878 10.836zm-.252-17.976c3.066 0 5.166 1.848 5.586 4.872h-11.55c.714-3.234 3.192-4.872 5.964-4.872zm16.983-3.276h-5.166l7.14 10.038-7.056 10.836h4.704l4.788-7.434 5.292 7.434h5.124l-7.518-10.626 7.014-10.248h-4.83l-4.578 6.888-4.914-6.888zm18.285 0v30.114h4.326v-12.012c1.68 1.974 4.116 3.15 6.93 3.15 5.796 0 10.206-4.578 10.206-10.836 0-6.216-4.41-10.794-10.206-10.794-2.898 0-5.334 1.26-7.056 3.318l-.168-2.94h-4.032zm10.626 3.612c3.738 0 6.3 2.73 6.3 6.804s-2.562 6.846-6.3 6.846c-3.78 0-6.3-2.772-6.3-6.846s2.52-6.804 6.3-6.804zm15.747 17.262h4.326v-31.5h-4.326v31.5zm20.193-21.252c-6.3 0-10.962 4.578-10.962 10.794 0 6.258 4.662 10.836 10.962 10.836 6.342 0 10.962-4.578 10.962-10.836 0-6.216-4.62-10.794-10.962-10.794zm0 3.99c3.822 0 6.426 2.73 6.426 6.804s-2.604 6.846-6.426 6.846-6.426-2.772-6.426-6.846 2.604-6.804 6.426-6.804zm15.859 17.262h4.326v-10.878c0-3.948 2.436-6.09 5.334-6.09.714 0 1.428.084 2.142.294l.588-4.242c-.798-.21-1.344-.294-2.058-.294-2.772 0-4.788 1.26-6.006 3.192l-.21-2.856h-4.116v20.874zm28.765 0h3.906v-12.768c0-5.586-3.528-8.484-8.904-8.484-4.998 0-8.316 2.562-9.324 6.552l4.158.756c.63-2.478 2.436-3.612 5.124-3.612 2.478 0 4.242 1.134 4.662 3.696l-5.628 1.302c-4.662 1.092-8.19 2.772-8.19 6.93 0 3.78 2.814 6.006 6.678 6.006 3.108 0 5.67-1.428 7.308-3.822l.21 3.444zm-9.744-5.922c0-1.806 1.47-2.604 3.864-3.192l5.586-1.386v.504c0 4.452-3.234 6.72-6.468 6.72-1.848 0-2.982-.966-2.982-2.646zm19.739 5.922h4.326v-10.878c0-3.948 2.436-6.09 5.334-6.09.714 0 1.428.084 2.142.294l.588-4.242c-.798-.21-1.344-.294-2.058-.294-2.772 0-4.788 1.26-6.006 3.192l-.21-2.856h-4.116v20.874z" fill="#171A22"/></svg>