<svg width="279" height="52" viewBox="0 0 279 52" fill="none" xmlns="http://www.w3.org/2000/svg"><rect x=".377" y=".597" width="277.694" height="51.053" rx="25.526" fill="#FF642D"/><path d="M31.032 34.377h2.59V27.81h3.931c3.515 0 5.828-2.336 5.828-5.388 0-3.145-2.313-5.388-5.828-5.388h-6.52v17.343zm6.521-15.008c2.012 0 3.238 1.18 3.238 3.053 0 1.826-1.226 3.052-3.238 3.052h-3.93v-6.105h3.93zm9.265 15.008h2.59V27.07h3.121l4.787 7.307h3.006l-5.064-7.747c2.081-.578 3.515-2.197 3.515-4.578 0-3.007-2.243-5.018-5.48-5.018h-6.475v17.343zm6.474-15.008c1.735 0 2.89 1.087 2.89 2.683 0 1.595-1.155 2.682-2.936 2.682h-3.839v-5.365h3.885zm15.762 12.834c-2.405 0-4.047-1.595-4.047-4.139v-11.03h-2.59v10.96c0 4.001 2.729 6.591 6.637 6.591 3.908 0 6.637-2.59 6.637-6.59V17.034H73.1v11.03c0 2.544-1.642 4.14-4.047 4.14zM86.78 12.756l-2.22 3.121h2.22l3.121-3.121h-3.121zm-6.406 21.621h11.308v-2.336h-8.718v-5.596h5.966V24.11h-5.966v-4.74h8.487v-2.336H80.375v17.343zm14.543 0h6.521c3.261 0 5.365-1.92 5.365-4.949 0-2.035-1.064-3.515-3.075-4.208 1.387-.74 2.266-1.989 2.266-3.746 0-2.73-1.966-4.44-4.949-4.44h-6.128v17.343zm5.943-15.124c1.573 0 2.59.972 2.59 2.475 0 1.572-.994 2.567-2.567 2.567h-3.376v-5.042h3.353zm.486 7.331c1.734 0 2.844 1.133 2.844 2.844 0 1.688-1.11 2.729-2.821 2.729h-3.862v-5.573h3.839zm6.935 7.793h2.637l2.104-5.62h6.544l2.081 5.62h2.752l-6.637-17.343h-2.821l-6.66 17.343zm5.597-7.909l2.404-6.498 2.429 6.498h-4.833zm13.31 7.909h10.683v-2.382h-8.093V17.034h-2.59v17.343zm11.692-8.672c0 5.134 3.538 8.88 8.626 8.88 5.064 0 8.602-3.77 8.602-8.88 0-5.133-3.538-8.88-8.602-8.88-5.088 0-8.626 3.747-8.626 8.88zm14.546 0c0 3.885-2.359 6.498-5.92 6.498-3.585 0-5.92-2.613-5.92-6.498 0-3.885 2.335-6.498 5.92-6.498 3.561 0 5.92 2.613 5.92 6.498zm13.023-.023c0-3.792 2.29-6.475 5.897-6.475 2.613 0 4.37 1.388 5.018 3.608l2.544-.717c-.879-3.122-3.654-5.272-7.562-5.272-5.064 0-8.602 3.769-8.602 8.856 0 5.11 3.561 8.903 8.579 8.903 4.717 0 7.955-3.122 7.955-7.816v-1.272h-9.713v2.313h7.03c0 2.613-2.312 4.393-5.272 4.393-3.631 0-5.874-2.682-5.874-6.52zm17.488 8.695h2.59V27.07h3.122l4.787 7.307h3.006l-5.064-7.747c2.081-.578 3.515-2.197 3.515-4.578 0-3.007-2.243-5.018-5.481-5.018h-6.475v17.343zm6.475-15.008c1.735 0 2.891 1.087 2.891 2.683 0 1.595-1.156 2.682-2.937 2.682h-3.839v-5.365h3.885zm7.815 15.008h2.637l2.104-5.62h6.544l2.081 5.62h2.752l-6.636-17.343h-2.822l-6.66 17.343zm5.597-7.909l2.405-6.498 2.428 6.498h-4.833zm14.971 7.909h2.59V19.415h5.272v-2.381h-13.135v2.381h5.273v14.962zm10.917 0h2.59V17.034h-2.59v17.343zm19.084-13.02c-.671-2.867-2.914-4.531-6.244-4.531-3.446 0-6.174 2.011-6.174 4.925 0 3.654 3.052 4.324 5.781 4.925 2.15.486 4.07.902 4.07 2.752 0 1.943-1.642 2.821-3.654 2.821-2.289 0-3.816-1.133-4.301-3.399l-2.636.694c.74 3.076 3.029 5.041 6.937 5.041 3.723 0 6.336-2.012 6.336-5.226 0-3.63-3.029-4.417-5.735-5.041-2.173-.486-4.116-.879-4.116-2.683 0-1.595 1.341-2.52 3.492-2.52 1.942 0 3.284 1.156 3.654 2.89l2.59-.647z" fill="#fff"/></svg>